<svg width="418" height="139.999" xmlns="http://www.w3.org/2000/svg">
 <defs>
  <radialGradient gradientUnits="userSpaceOnUse" gradientTransform="matrix(1.0001 0 0 0.7902 -0.2905 34.6306)" r="211.0719" cy="166.0869" cx="208.2162" id="SVGID_1_">
   <stop stop-color="#FFFFFF" offset="0"/>
   <stop stop-color="#FFFFFF" stop-opacity="0" offset="1"/>
  </radialGradient>
 </defs>
 <g>
  <title>background</title>
  <rect fill="#ffffff" id="canvas_background" height="141.999" width="420" y="-1" x="-1"/>
 </g>
 <g>
  <title>Layer 1</title>
  <rect x="2" id="svg_1" height="130.001" width="418" fill="#4caf50" y="9.999"/>
  <g id="svg_2">
   <polygon id="svg_3" points="417.56500244140625,-64.00100708007812 428.68798828125,-64.00100708007812 439,-104.41300964355469 439,-148.0009994506836 " fill="#355388"/>
   <polygon id="svg_4" points="45.83100128173828,-64.00100708007812 34.70800018310547,-64.00100708007812 67.87899780273438,-194.0009994506836 79.0009994506836,-194.0009994506836 " fill="#355388"/>
   <polygon id="svg_5" points="80.63700103759766,-64.00100708007812 69.51399993896484,-64.00100708007812 102.68499755859375,-194.0009994506836 113.80699920654297,-194.0009994506836 " fill="#355388"/>
   <polygon id="svg_6" points="115.44100189208984,-64.00100708007812 104.31900024414062,-64.00100708007812 137.48899841308594,-194.0009994506836 148.61199951171875,-194.0009994506836 " fill="#355388"/>
   <polygon id="svg_7" points="150.2469940185547,-64.00100708007812 139.12399291992188,-64.00100708007812 172.2949981689453,-194.0009994506836 183.41900634765625,-194.0009994506836 " fill="#355388"/>
   <polygon id="svg_8" points="185.05299377441406,-64.00100708007812 173.92999267578125,-64.00100708007812 207.1009979248047,-194.0009994506836 218.2239990234375,-194.0009994506836 " fill="#355388"/>
   <polygon id="svg_9" points="219.85899353027344,-64.00100708007812 208.73500061035156,-64.00100708007812 241.90699768066406,-194.0009994506836 253.02902221679688,-194.0009994506836 " fill="#355388"/>
   <polygon id="svg_10" points="254.66400146484375,-64.00100708007812 243.54200744628906,-64.00100708007812 276.7139892578125,-194.0009994506836 287.8370056152344,-194.0009994506836 " fill="#355388"/>
   <polygon id="svg_11" points="289.4700012207031,-64.00100708007812 278.34698486328125,-64.00100708007812 311.5199890136719,-194.0009994506836 322.6419982910156,-194.0009994506836 " fill="#355388"/>
   <polygon id="svg_12" points="324.27398681640625,-64.00100708007812 313.1520080566406,-64.00100708007812 346.3240051269531,-194.0009994506836 357.4460144042969,-194.0009994506836 " fill="#355388"/>
   <polygon id="svg_13" points="359.0820007324219,-64.00100708007812 347.9590148925781,-64.00100708007812 381.1319885253906,-194.0009994506836 392.2539978027344,-194.0009994506836 " fill="#355388"/>
   <polygon id="svg_14" points="393.8869934082031,-64.00100708007812 382.7650146484375,-64.00100708007812 415.9360046386719,-194.0009994506836 427.0589904785156,-194.0009994506836 " fill="#355388"/>
   <polygon id="svg_15" points="33.073001861572266,-194.0009994506836 21,-146.68800354003906 21,-103.09600830078125 44.19599914550781,-194.0009994506836 " fill="#355388"/>
  </g>
  <rect stroke="null" id="svg_16" height="130.001" width="418" fill="url(#SVGID_1_)" y="12.999" x="1.974"/>
 </g>
</svg>